# xmcd CD database file
# Copyright (C) 1996 Ti Kan
#
# Track frame offsets:
# 	150
# 	12750
# 	29870
# 	43562
# 	63072
# 	79490
#
# Disc length: 1314 seconds
#
# Revision: 1
# Processed by: cddbd v1.4b41PL1 Copyright (c) Steve Scherf et al.
# Submitted via: DiscPlay 3.4.1
#
DISCID=46052006
DTITLE=Trisha Yearwood - Discover Trisha Yearwood
DYEAR=1900
DGENRE=
TTITLE0=XXX's And OOO's (An American Girl)
TTITLE1=The Woman Before Me
TTITLE2=If I Ain't Got You
TTITLE3=Walkaway Joe
TTITLE4=You Say You Will
TTITLE5=On A Bus To St. Cloud
EXTD=
EXTT0=
EXTT1=
EXTT2=
EXTT3=
EXTT4=
EXTT5=
PLAYORDER=
